<svg width="160" height="40" viewBox="0 0 160 40" fill="none" xmlns="http://www.w3.org/2000/svg">
<circle cx="20" cy="20" r="20" fill="#5865F2"/>
<path d="M27.6523 13.3935C30.1369 16.9893 31.364 21.0453 30.9053 25.7146C30.9034 25.7344 30.8929 25.7525 30.8764 25.7644C28.9949 27.1243 27.1719 27.9497 25.3745 28.497C25.3605 28.5012 25.3455 28.5009 25.3317 28.4963C25.3178 28.4917 25.3058 28.483 25.2972 28.4713C24.882 27.9026 24.5047 27.303 24.1741 26.6734C24.1551 26.6363 24.1725 26.5916 24.2115 26.577C24.8107 26.3548 25.3805 26.0884 25.9286 25.7731C25.9718 25.7482 25.9745 25.6873 25.9347 25.658C25.8183 25.573 25.7031 25.4837 25.5928 25.3944C25.5722 25.3779 25.5444 25.3746 25.5211 25.3857C21.9628 27.0031 18.065 27.0031 14.4647 25.3857C14.4413 25.3754 14.4136 25.379 14.3935 25.3952C14.2835 25.4845 14.168 25.573 14.0528 25.658C14.0129 25.6873 14.0162 25.7482 14.0596 25.7731C14.6077 26.0825 15.1775 26.3548 15.7759 26.5781C15.8147 26.5927 15.8331 26.6363 15.8139 26.6734C15.4905 27.3038 15.1132 27.9034 14.6902 28.4721C14.6718 28.4951 14.6415 28.5057 14.6129 28.497C12.8241 27.9497 11.0011 27.1243 9.11954 25.7644C9.10387 25.7525 9.09259 25.7336 9.09094 25.7138C8.70759 21.6749 9.48887 17.5854 12.3409 13.3927C12.3478 13.3816 12.3582 13.373 12.3703 13.3678C13.7736 12.7339 15.2771 12.2675 16.8484 12.0011C16.877 11.9968 16.9056 12.0098 16.9205 12.0347C17.1146 12.3731 17.3365 12.807 17.4867 13.1616C19.143 12.9125 20.8252 12.9125 22.5161 13.1616C22.6663 12.8146 22.8805 12.3731 23.0738 12.0347C23.0807 12.0224 23.0914 12.0125 23.1043 12.0064C23.1173 12.0004 23.1318 11.9985 23.1459 12.0011C24.7181 12.2683 26.2215 12.7347 27.6237 13.3678C27.6361 13.373 27.6463 13.3816 27.6523 13.3935ZM18.3287 21.0729C18.3461 19.8789 17.4617 18.8909 16.3515 18.8909C15.2504 18.8909 14.3745 19.8702 14.3745 21.0729C14.3745 22.2753 15.2677 23.2546 16.3515 23.2546C17.4529 23.2546 18.3287 22.2753 18.3287 21.0729ZM25.6388 21.0729C25.6561 19.8789 24.7717 18.8909 23.6618 18.8909C22.5604 18.8909 21.6845 19.8702 21.6845 21.0729C21.6845 22.2753 22.5777 23.2546 23.6618 23.2546C24.7717 23.2546 25.6388 22.2753 25.6388 21.0729Z" fill="white"/>
<path d="M60.184 27H53.44V10.992H60.16C65.2 10.992 68.824 14.016 68.824 18.984C68.824 23.952 65.2 27 60.184 27ZM60.16 23.4C62.968 23.4 64.6 21.36 64.6 18.984C64.6 16.512 63.112 14.592 60.184 14.592H57.568V23.4H60.16ZM75.0055 27H70.8775V10.992H75.0055V27ZM83.8373 27.288C80.5973 27.288 78.3413 26.28 76.7333 24.744L78.9173 21.648C80.0693 22.8 81.8453 23.76 84.0293 23.76C85.4453 23.76 86.3093 23.208 86.3093 22.44C86.3093 20.256 77.2373 22.008 77.2373 15.84C77.2373 13.152 79.5173 10.752 83.6213 10.752C86.1893 10.752 88.4213 11.52 90.1253 12.984L87.8693 15.936C86.5253 14.832 84.7733 14.28 83.1893 14.28C81.9893 14.28 81.4613 14.76 81.4613 15.432C81.4613 17.472 90.5093 15.984 90.5093 21.936C90.5093 25.152 88.1333 27.288 83.8373 27.288ZM100.288 27.288C95.368 27.288 91.624 23.928 91.624 19.008C91.624 14.064 95.368 10.728 100.288 10.728C104.152 10.728 106.216 12.912 107.272 15.024L103.72 16.704C103.192 15.432 101.824 14.376 100.288 14.376C97.672 14.376 95.824 16.392 95.824 19.008C95.824 21.624 97.672 23.64 100.288 23.64C101.824 23.64 103.192 22.584 103.72 21.312L107.272 22.992C106.24 25.056 104.152 27.288 100.288 27.288ZM116.809 27.288C111.913 27.288 108.241 23.88 108.241 19.008C108.241 14.136 111.913 10.728 116.809 10.728C121.705 10.728 125.353 14.136 125.353 19.008C125.353 23.88 121.705 27.288 116.809 27.288ZM116.809 23.64C119.449 23.64 121.153 21.6 121.153 19.008C121.153 16.392 119.449 14.376 116.809 14.376C114.145 14.376 112.441 16.392 112.441 19.008C112.441 21.6 114.145 23.64 116.809 23.64ZM141.088 27H136.36L133.672 21.624H131.56V27H127.432V10.992H135.448C139 10.992 141.016 13.344 141.016 16.32C141.016 19.104 139.312 20.592 137.824 21.12L141.088 27ZM134.824 18.024C135.904 18.024 136.816 17.424 136.816 16.296C136.816 15.216 135.904 14.592 134.824 14.592H131.56V18.024H134.824ZM150.043 27H143.299V10.992H150.019C155.059 10.992 158.683 14.016 158.683 18.984C158.683 23.952 155.059 27 150.043 27ZM150.019 23.4C152.827 23.4 154.459 21.36 154.459 18.984C154.459 16.512 152.971 14.592 150.043 14.592H147.427V23.4H150.019Z" fill="white"/>
</svg>
