<svg width="20" height="20" viewBox="0 0 20 20" fill="none" xmlns="http://www.w3.org/2000/svg">
<path d="M3.33317 16.6667C2.87484 16.6667 2.48262 16.5037 2.1565 16.1775C1.83039 15.8514 1.66706 15.4589 1.6665 15V5.00004C1.6665 4.54171 1.82984 4.14948 2.1565 3.82337C2.48317 3.49726 2.87539 3.33393 3.33317 3.33337H16.6665C17.1248 3.33337 17.5173 3.49671 17.844 3.82337C18.1707 4.15004 18.3337 4.54226 18.3332 5.00004V15C18.3332 15.4584 18.1701 15.8509 17.844 16.1775C17.5179 16.5042 17.1254 16.6673 16.6665 16.6667H3.33317ZM9.99984 10.8334L16.6665 6.66671V5.00004L9.99984 9.16671L3.33317 5.00004V6.66671L9.99984 10.8334Z" fill="white"/>
</svg>
