<svg width="154" height="34" viewBox="0 0 154 34" fill="none" xmlns="http://www.w3.org/2000/svg">
<g clip-path="url(#clip0_93_116)">
<path d="M24.7737 30.521H1.63086L8.35419 0.000488281H31.4971L29.7133 8.05388H15.8093L15.169 11.0738H28.7529L26.9691 19.1273H13.3852L12.6535 22.4676H26.5575L24.7737 30.521ZM42.4603 30.521H28.8765L35.5998 0.000488281H49.0007C55.7697 0.000488281 62.8132 5.0796 62.8132 13.1788C62.8132 20.9118 57.9194 30.521 42.4603 30.521ZM43.9696 22.4676H44.1526C49.9155 22.4676 53.2542 18.5324 53.2542 13.8652C53.2542 10.6162 50.8759 8.05388 47.3085 8.05388H43.055L39.899 22.4676H43.9696ZM89.8587 30.521H79.7052L77.6012 20.9118H73.8966L71.7926 30.521H62.5539L69.2771 0.000488281H84.0959C89.63 0.000488281 94.3409 3.61532 94.3409 9.24357C94.3409 14.6431 90.8192 18.807 86.8401 20.2255L89.8587 30.521ZM81.1688 12.8585H81.3059C83.3184 12.8585 84.782 11.989 84.782 10.2503C84.782 8.96896 83.6385 8.05388 82.2207 8.05388H76.7322L75.6803 12.8585H81.1688ZM102.79 30.521H93.5513L100.275 0.000488281H119.965C125.088 0.000488281 125.339 4.02711 125.339 9.01477C125.339 13.4533 122.412 20.9118 111.846 20.9118H104.894L102.79 30.521ZM106.678 12.8585H112.303C113.996 12.8585 115.779 11.8517 115.779 10.0672C115.779 8.69447 114.819 8.05388 113.264 8.05388H107.73L106.678 12.8585Z" fill="white"/>
<path d="M135.291 30.5791H123.568L118.999 0H129.107L131.184 20.5848L142.4 0H153.43L135.291 30.5791Z" fill="url(#paint0_linear_93_116)"/>
</g>
<defs>
<linearGradient id="paint0_linear_93_116" x1="125.764" y1="37.408" x2="151.757" y2="-9.29662" gradientUnits="userSpaceOnUse">
<stop stop-color="#FF0040"/>
</linearGradient>
<clipPath id="clip0_93_116">
<rect width="153.43" height="33.6008" fill="white"/>
</clipPath>
</defs>
</svg>
