<svg width="154" height="34" viewBox="0 0 154 34" fill="none" xmlns="http://www.w3.org/2000/svg">
<g clip-path="url(#clip0_2_823)">
<path d="M24.7738 30.5212H1.63089L8.35422 0.000709534H31.4971L29.7134 8.0541H15.8093L15.169 11.0741H28.7529L26.9691 19.1275H13.3853L12.6535 22.4678H26.5575L24.7738 30.5212ZM42.4604 30.5212H28.8765L35.5999 0.000709534H49.0007C55.7697 0.000709534 62.8133 5.07982 62.8133 13.179C62.8133 20.912 57.9195 30.5212 42.4604 30.5212ZM43.9697 22.4678H44.1527C49.9155 22.4678 53.2542 18.5326 53.2542 13.8654C53.2542 10.6165 50.8759 8.0541 47.3085 8.0541H43.055L39.899 22.4678H43.9697ZM89.8587 30.5212H79.7052L77.6013 20.912H73.8966L71.7927 30.5212H62.5539L69.2771 0.000709534H84.0959C89.6301 0.000709534 94.341 3.61554 94.341 9.24379C94.341 14.6433 90.8192 18.8072 86.8402 20.2257L89.8587 30.5212ZM81.1688 12.8587H81.3059C83.3184 12.8587 84.782 11.9893 84.782 10.2505C84.782 8.96918 83.6385 8.0541 82.2207 8.0541H76.7323L75.6804 12.8587H81.1688ZM102.79 30.5212H93.5513L100.275 0.000709534H119.965C125.088 0.000709534 125.339 4.02733 125.339 9.01499C125.339 13.4535 122.412 20.912 111.846 20.912H104.894L102.79 30.5212ZM106.678 12.8587H112.303C113.996 12.8587 115.779 11.852 115.779 10.0674C115.779 8.6947 114.819 8.0541 113.264 8.0541H107.73L106.678 12.8587Z" fill="white"/>
<g filter="url(#filter0_dd_2_823)">
<path d="M135.291 30.5791H123.568L118.999 0H129.106L131.184 20.5848L142.4 0H153.43L135.291 30.5791Z" fill="url(#paint0_linear_2_823)"/>
</g>
</g>
<defs>
<filter id="filter0_dd_2_823" x="99.2988" y="-21.7" width="63.8312" height="59.9791" filterUnits="userSpaceOnUse" color-interpolation-filters="sRGB">
<feFlood flood-opacity="0" result="BackgroundImageFix"/>
<feColorMatrix in="SourceAlpha" type="matrix" values="0 0 0 0 0 0 0 0 0 0 0 0 0 0 0 0 0 0 127 0" result="hardAlpha"/>
<feOffset dx="-5" dy="-7"/>
<feGaussianBlur stdDeviation="7.35"/>
<feComposite in2="hardAlpha" operator="out"/>
<feColorMatrix type="matrix" values="0 0 0 0 0 0 0 0 0 0 0 0 0 0 0 0 0 0 0.42 0"/>
<feBlend mode="normal" in2="BackgroundImageFix" result="effect1_dropShadow_2_823"/>
<feColorMatrix in="SourceAlpha" type="matrix" values="0 0 0 0 0 0 0 0 0 0 0 0 0 0 0 0 0 0 127 0" result="hardAlpha"/>
<feOffset dx="-1" dy="-1"/>
<feGaussianBlur stdDeviation="2.7"/>
<feComposite in2="hardAlpha" operator="out"/>
<feColorMatrix type="matrix" values="0 0 0 0 0 0 0 0 0 0 0 0 0 0 0 0 0 0 0.42 0"/>
<feBlend mode="normal" in2="effect1_dropShadow_2_823" result="effect2_dropShadow_2_823"/>
<feBlend mode="normal" in="SourceGraphic" in2="effect2_dropShadow_2_823" result="shape"/>
</filter>
<linearGradient id="paint0_linear_2_823" x1="125.764" y1="37.408" x2="151.757" y2="-9.29662" gradientUnits="userSpaceOnUse">
<stop stop-color="#FF0040"/>
</linearGradient>
<clipPath id="clip0_2_823">
<rect width="153.43" height="33.6008" fill="white"/>
</clipPath>
</defs>
</svg>
