<svg width="181" height="40" viewBox="0 0 181 40" fill="none" xmlns="http://www.w3.org/2000/svg">
<path fill-rule="evenodd" clip-rule="evenodd" d="M20 0C31.0457 0 40 8.95432 40 20C40 31.0457 31.0457 40 20 40C8.95432 40 0 31.0457 0 20C0 8.95432 8.95432 0 20 0Z" fill="url(#paint0_linear_32_110)"/>
<path d="M21.9604 32.3307V19.8657H25.4635L25.9278 15.4786H21.9604L21.9663 13.2826C21.9663 12.1384 22.0747 11.5255 23.713 11.5255H25.9032V7.1377H22.3994C18.1907 7.1377 16.7095 9.2658 16.7095 12.8451V15.4789H14.0859V19.8664H16.7095V32.154C17.7316 32.3582 18.7883 32.4662 19.8702 32.4662C20.5691 32.4662 21.2673 32.4209 21.9604 32.3307Z" fill="white"/>
<path d="M57.568 27H53.44V10.992H65.176V14.592H57.568V17.088H65.008V20.688H57.568V27ZM81.8358 27H77.1558L76.3638 24.696H70.0518L69.2598 27H64.5797L70.6038 10.992H75.7878L81.8358 27ZM75.2358 21.096L73.1958 15.072L71.1558 21.096H75.2358ZM90.0927 27.288C85.1727 27.288 81.4287 23.928 81.4287 19.008C81.4287 14.064 85.1727 10.728 90.0927 10.728C93.9567 10.728 96.0207 12.912 97.0767 15.024L93.5247 16.704C92.9967 15.432 91.6287 14.376 90.0927 14.376C87.4767 14.376 85.6287 16.392 85.6287 19.008C85.6287 21.624 87.4767 23.64 90.0927 23.64C91.6287 23.64 92.9967 22.584 93.5247 21.312L97.0767 22.992C96.0447 25.056 93.9567 27.288 90.0927 27.288ZM110.598 27H98.8619V10.992H110.598V14.592H102.99V17.088H110.43V20.688H102.99V23.4H110.598V27ZM122.355 27H112.995V10.992H122.067C125.235 10.992 126.747 13.056 126.747 15.072C126.747 17.064 125.523 18.408 124.011 18.744C125.715 19.008 127.059 20.64 127.059 22.656C127.059 24.984 125.499 27 122.355 27ZM121.131 17.136C121.971 17.136 122.547 16.584 122.547 15.792C122.547 15.024 121.971 14.472 121.131 14.472H117.123V17.136H121.131ZM121.275 23.52C122.259 23.52 122.859 22.944 122.859 22.08C122.859 21.288 122.283 20.64 121.275 20.64H117.123V23.52H121.275ZM137.059 27.288C132.163 27.288 128.491 23.88 128.491 19.008C128.491 14.136 132.163 10.728 137.059 10.728C141.955 10.728 145.603 14.136 145.603 19.008C145.603 23.88 141.955 27.288 137.059 27.288ZM137.059 23.64C139.699 23.64 141.403 21.6 141.403 19.008C141.403 16.392 139.699 14.376 137.059 14.376C134.395 14.376 132.691 16.392 132.691 19.008C132.691 21.6 134.395 23.64 137.059 23.64ZM155.434 27.288C150.538 27.288 146.866 23.88 146.866 19.008C146.866 14.136 150.538 10.728 155.434 10.728C160.33 10.728 163.978 14.136 163.978 19.008C163.978 23.88 160.33 27.288 155.434 27.288ZM155.434 23.64C158.074 23.64 159.778 21.6 159.778 19.008C159.778 16.392 158.074 14.376 155.434 14.376C152.77 14.376 151.066 16.392 151.066 19.008C151.066 21.6 152.77 23.64 155.434 23.64ZM180.529 27H175.465L171.265 20.976L170.185 22.32V27H166.057V10.992H170.185V17.568L175.105 10.992H180.193L173.977 18.48L180.529 27Z" fill="white"/>
<defs>
<linearGradient id="paint0_linear_32_110" x1="20" y1="-0.36442" x2="20" y2="41.7056" gradientUnits="userSpaceOnUse">
<stop stop-color="#00B2FF"/>
<stop offset="1" stop-color="#006AFF"/>
</linearGradient>
</defs>
</svg>
