<svg width="12" height="10" viewBox="0 0 12 10" fill="none" xmlns="http://www.w3.org/2000/svg">
<path d="M8.33332 7.91667V9.08333H0.166656V7.91667C0.166656 7.91667 0.166656 5.58333 4.24999 5.58333C8.33332 5.58333 8.33332 7.91667 8.33332 7.91667ZM6.29166 2.375C6.29166 1.9712 6.17192 1.57646 5.94757 1.24071C5.72323 0.904962 5.40437 0.643276 5.0313 0.488747C4.65824 0.334218 4.24773 0.293786 3.85168 0.372565C3.45564 0.451343 3.09185 0.645793 2.80631 0.931325C2.52078 1.21686 2.32633 1.58065 2.24755 1.97669C2.16878 2.37274 2.20921 2.78325 2.36374 3.15631C2.51827 3.52938 2.77995 3.84824 3.1157 4.07259C3.45145 4.29693 3.84619 4.41667 4.24999 4.41667C4.79147 4.41667 5.31078 4.20156 5.69367 3.81868C6.07655 3.43579 6.29166 2.91648 6.29166 2.375ZM8.29832 5.58333C8.65693 5.86085 8.95036 6.21359 9.15797 6.61671C9.36558 7.01984 9.48232 7.46357 9.49999 7.91667V9.08333H11.8333V7.91667C11.8333 7.91667 11.8333 5.79917 8.29832 5.58333ZM7.74999 0.333334C7.34853 0.331467 6.95595 0.451478 6.62416 0.677501C6.9785 1.1726 7.16902 1.76617 7.16902 2.375C7.16902 2.98383 6.9785 3.5774 6.62416 4.0725C6.95595 4.29852 7.34853 4.41854 7.74999 4.41667C8.29147 4.41667 8.81078 4.20156 9.19367 3.81868C9.57655 3.43579 9.79166 2.91648 9.79166 2.375C9.79166 1.83352 9.57655 1.31421 9.19367 0.931325C8.81078 0.548438 8.29147 0.333334 7.74999 0.333334Z" fill="white"/>
</svg>
