<svg width="179" height="40" viewBox="0 0 179 40" fill="none" xmlns="http://www.w3.org/2000/svg">
<g clip-path="url(#clip0_32_95)">
<path d="M20 40C31.0457 40 40 31.0457 40 20C40 8.95432 31.0457 0 20 0C8.95432 0 0 8.95432 0 20C0 31.0457 8.95432 40 20 40Z" fill="#34AADF"/>
<path d="M8.32376 19.8265C8.32376 19.8265 18.3238 15.7225 21.7919 14.2774C23.1214 13.6994 27.6301 11.8496 27.6301 11.8496C27.6301 11.8496 29.711 11.0404 29.5376 13.0057C29.4798 13.815 29.0174 16.6473 28.555 19.7109C27.8613 24.0462 27.1098 28.786 27.1098 28.786C27.1098 28.786 26.9942 30.1155 26.0116 30.3467C25.029 30.5779 23.4104 29.5375 23.1214 29.3062C22.8902 29.1329 18.7862 26.5317 17.2833 25.26C16.8786 24.9132 16.4162 24.2196 17.341 23.4103C19.422 21.5028 21.9075 19.1329 23.4104 17.63C24.1041 16.9363 24.7977 15.3178 21.9075 17.2831C17.8035 20.1155 13.7573 22.7745 13.7573 22.7745C13.7573 22.7745 12.8324 23.3525 11.0983 22.8322C9.36416 22.3121 7.34104 21.6184 7.34104 21.6184C7.34104 21.6184 5.95384 20.7514 8.32376 19.8265Z" fill="white"/>
</g>
<path d="M61.144 27H57.016V14.592H52.528V10.992H65.608V14.592H61.144V27ZM79.3088 27H67.5728V10.992H79.3088V14.592H71.7008V17.088H79.1408V20.688H71.7008V23.4H79.3088V27ZM92.2656 27H81.7056V10.992H85.8336V23.4H92.2656V27ZM106.145 27H94.4088V10.992H106.145V14.592H98.5368V17.088H105.977V20.688H98.5368V23.4H106.145V27ZM116.39 27.288C111.614 27.288 107.726 24.096 107.726 19.008C107.726 13.92 111.614 10.728 116.39 10.728C119.966 10.728 122.126 12.624 123.23 14.616L119.774 16.416C119.174 15.36 117.95 14.376 116.39 14.376C113.774 14.376 111.926 16.392 111.926 19.008C111.926 21.624 113.774 23.64 116.39 23.64C117.566 23.64 118.766 23.16 119.342 22.68V21.432H115.742V17.808H123.47V24.168C121.742 26.064 119.414 27.288 116.39 27.288ZM139.541 27H134.813L132.125 21.624H130.013V27H125.885V10.992H133.901C137.453 10.992 139.469 13.344 139.469 16.32C139.469 19.104 137.765 20.592 136.277 21.12L139.541 27ZM133.277 18.024C134.357 18.024 135.269 17.424 135.269 16.296C135.269 15.216 134.357 14.592 133.277 14.592H130.013V18.024H133.277ZM157.305 27H152.625L151.833 24.696H145.521L144.729 27H140.048L146.073 10.992H151.257L157.305 27ZM150.705 21.096L148.665 15.072L146.625 21.096H150.705ZM176.655 27H172.527V16.584L168.471 27H166.647L162.615 16.584V27H158.487V10.992H164.223L167.559 19.68L170.919 10.992H176.655V27Z" fill="white"/>
<defs>
<clipPath id="clip0_32_95">
<rect width="40" height="40" fill="white"/>
</clipPath>
</defs>
</svg>
