<svg width="137" height="40" viewBox="0 0 137 40" fill="none" xmlns="http://www.w3.org/2000/svg">
<rect width="40" height="40" rx="20" fill="white"/>
<path d="M18.2353 18.1977V17.3215C17.911 17.2785 17.5842 17.2563 17.2571 17.2549C13.2559 17.2549 10 20.3091 10 24.0631C10 26.3656 11.2271 28.4044 13.0982 29.6367C11.8453 28.3797 11.1482 26.7229 11.1494 25.0018C11.1494 21.3014 14.3124 18.2838 18.2353 18.1977Z" fill="#00F2EA"/>
<path d="M18.4281 27.8676C20.1198 27.8676 21.4992 26.5274 21.5622 24.8564L21.5681 9.94397H24.3033C24.2448 9.63273 24.2151 9.31673 24.2145 9H20.4792L20.4728 23.913C20.4104 25.5828 19.0298 26.923 17.3386 26.923C16.8313 26.923 16.3315 26.7996 15.8822 26.5634C16.1733 26.9671 16.5559 27.2959 16.9985 27.5226C17.4411 27.7494 17.931 27.8676 18.4281 27.8676ZM29.4116 15.0058V14.1768C28.4074 14.1779 27.4245 13.8869 26.5822 13.339C27.3215 14.1859 28.3136 14.7706 29.4116 15.0058Z" fill="#00F2EA"/>
<path d="M26.4708 13.5506C25.6494 12.6205 25.1958 11.4214 25.1955 10.1792H24.1972C24.3279 10.8665 24.5968 11.5199 24.9877 12.0995C25.3786 12.6792 25.8832 13.1729 26.4708 13.5506ZM17.2502 20.8305C15.5208 20.8329 14.1196 22.2226 14.1178 23.9378C14.1196 24.5064 14.2771 25.0636 14.5732 25.5486C14.8692 26.0336 15.2924 26.4278 15.7967 26.6883C15.4119 26.1629 15.2042 25.5282 15.2037 24.8765C15.2055 23.1607 16.6067 21.7704 18.3361 21.7686C18.6596 21.7686 18.9684 21.8217 19.2608 21.9125V18.139C18.9544 18.0958 18.6455 18.0733 18.3361 18.0717C18.2819 18.0717 18.2284 18.0753 18.1749 18.0759V20.9744C17.8757 20.88 17.5639 20.8315 17.2502 20.8305Z" fill="#FF004F"/>
<path d="M28.9134 15.4861V18.3657C27.0553 18.3685 25.2427 17.789 23.7293 16.7083V24.2359C23.7293 27.9959 20.6528 31.0548 16.8717 31.0548C15.4099 31.0548 14.0546 30.5961 12.9411 29.8184C13.5839 30.5062 14.3609 31.0544 15.2238 31.4289C16.0867 31.8033 17.0172 31.9961 17.9575 31.9952C21.7393 31.9952 24.8158 28.9363 24.8158 25.1769V17.6488C26.3292 18.7293 28.1418 19.3085 29.9999 19.3056V15.6011C29.6347 15.6009 29.2706 15.5624 28.9134 15.4861Z" fill="#FF004F"/>
<path d="M24.1056 23.9879V16.448C25.663 17.5331 27.5153 18.1127 29.4121 18.1083V15.2251C28.2967 14.9937 27.2843 14.4111 26.5226 13.5624C25.3038 12.7918 24.4626 11.5695 24.1956 10.1792H21.4032L21.3973 25.0463C21.3326 26.7113 19.9238 28.0474 18.1973 28.0474C17.1656 28.0462 16.1985 27.5627 15.5973 26.7479C14.5421 26.2096 13.8803 25.1465 13.8797 23.9873C13.8815 22.2656 15.315 20.8712 17.0856 20.8689C17.415 20.8689 17.7315 20.9219 18.0315 21.0133V18.1048C14.2368 18.1914 11.1768 21.2179 11.1768 24.9289C11.1768 26.7243 11.8938 28.3581 13.0621 29.578C14.2483 30.3871 15.6507 30.8185 17.0856 30.8156C20.9562 30.8156 24.1056 27.7526 24.1056 23.9879Z" fill="black"/>
<path d="M61.144 27H57.016V14.592H52.528V10.992H65.608V14.592H61.144V27ZM71.7008 27H67.5728V10.992H71.7008V27ZM89.0526 27H83.9886L79.7886 20.976L78.7086 22.32V27H74.5806V10.992H78.7086V17.568L83.6286 10.992H88.7166L82.5006 18.48L89.0526 27ZM97.9878 27H93.8598V14.592H89.3718V10.992H102.452V14.592H97.9878V27ZM111.63 27.288C106.734 27.288 103.062 23.88 103.062 19.008C103.062 14.136 106.734 10.728 111.63 10.728C116.526 10.728 120.174 14.136 120.174 19.008C120.174 23.88 116.526 27.288 111.63 27.288ZM111.63 23.64C114.27 23.64 115.974 21.6 115.974 19.008C115.974 16.392 114.27 14.376 111.63 14.376C108.966 14.376 107.262 16.392 107.262 19.008C107.262 21.6 108.966 23.64 111.63 23.64ZM136.725 27H131.661L127.461 20.976L126.381 22.32V27H122.253V10.992H126.381V17.568L131.301 10.992H136.389L130.173 18.48L136.725 27Z" fill="white"/>
</svg>
