<svg width="179" height="40" viewBox="0 0 179 40" fill="none" xmlns="http://www.w3.org/2000/svg">
<path fill-rule="evenodd" clip-rule="evenodd" d="M20 0C31.0457 0 40 8.95432 40 20C40 31.0457 31.0457 40 20 40C8.95432 40 0 31.0457 0 20C0 8.95432 8.95432 0 20 0Z" fill="url(#paint0_linear_32_121)"/>
<path fill-rule="evenodd" clip-rule="evenodd" d="M30.4704 13.9168C30.6322 13.3775 30.4704 13 29.7154 13H27.1987C26.5516 13 26.264 13.3416 26.1022 13.7191C26.1022 13.7191 24.8259 16.8469 23.0103 18.8603C22.417 19.4535 22.1654 19.6333 21.8418 19.6333C21.68 19.6333 21.4463 19.4535 21.4463 18.9142V13.9168C21.4463 13.2696 21.2665 13 20.7273 13H16.7725C16.377 13 16.1253 13.3056 16.1253 13.5752C16.1253 14.1864 17.0241 14.3303 17.132 16.02V19.7232C17.132 20.5321 16.9882 20.6759 16.6646 20.6759C15.8197 20.6759 13.7345 17.548 12.5121 13.9527C12.2604 13.2876 12.0267 13 11.3796 13H8.86286C8.14381 13 8 13.3416 8 13.7191C8 14.3842 8.84489 17.6918 11.9728 22.0601C14.058 25.0442 16.9882 26.662 19.6487 26.662C21.2486 26.662 21.4463 26.3025 21.4463 25.6913V23.4263C21.4463 22.7072 21.5901 22.5634 22.1114 22.5634C22.4889 22.5634 23.1181 22.7432 24.6102 24.1813C26.3179 25.889 26.6055 26.662 27.5583 26.662H30.075C30.794 26.662 31.1535 26.3025 30.9378 25.6014C30.7041 24.9003 29.8952 23.8757 28.8166 22.6533C28.2234 21.9522 27.3426 21.2152 27.0909 20.8377C26.7134 20.3523 26.8212 20.1366 27.0909 19.7232C27.0909 19.7052 30.1648 15.3909 30.4704 13.9168Z" fill="white"/>
<path d="M62.944 27H57.76L51.736 10.992H56.416L60.352 22.536L64.312 10.992H68.992L62.944 27ZM84.6464 27H79.5824L75.3824 20.976L74.3024 22.32V27H70.1744V10.992H74.3024V17.568L79.2224 10.992H84.3104L78.0944 18.48L84.6464 27ZM92.5748 27.288C87.6788 27.288 84.0068 23.88 84.0068 19.008C84.0068 14.136 87.6788 10.728 92.5748 10.728C97.4708 10.728 101.119 14.136 101.119 19.008C101.119 23.88 97.4708 27.288 92.5748 27.288ZM92.5748 23.64C95.2148 23.64 96.9188 21.6 96.9188 19.008C96.9188 16.392 95.2148 14.376 92.5748 14.376C89.9108 14.376 88.2068 16.392 88.2068 19.008C88.2068 21.6 89.9108 23.64 92.5748 23.64ZM118.078 27H114.094L107.326 17.736V27H103.198V10.992H107.446L113.926 19.8V10.992H118.078V27ZM128.667 27H124.539V14.592H120.051V10.992H133.131V14.592H128.667V27ZM149.172 27H144.492L143.7 24.696H137.388L136.596 27H131.916L137.94 10.992H143.124L149.172 27ZM142.572 21.096L140.532 15.072L138.492 21.096H142.572ZM164.826 27H159.762L155.562 20.976L154.482 22.32V27H150.354V10.992H154.482V17.568L159.402 10.992H164.49L158.274 18.48L164.826 27ZM173.761 27H169.633V14.592H165.145V10.992H178.225V14.592H173.761V27Z" fill="white"/>
<defs>
<linearGradient id="paint0_linear_32_121" x1="20" y1="-0.36442" x2="20" y2="41.7056" gradientUnits="userSpaceOnUse">
<stop stop-color="#0090CE"/>
</linearGradient>
</defs>
</svg>
