<svg width="166" height="40" viewBox="0 0 166 40" fill="none" xmlns="http://www.w3.org/2000/svg">
<circle cx="20" cy="20" r="20" fill="#FF0000"/>
<path d="M27.482 19.5184C23.231 17.2545 19.1607 15.1731 15 13V26C19.3783 23.628 23.9931 21.4558 27.5001 19.5184H27.482Z" fill="white"/>
<path d="M61.936 27H57.808V20.544L51.736 10.992H56.392L59.872 16.896L63.304 10.992H67.984L61.936 20.544V27ZM75.9576 27.288C71.0616 27.288 67.3896 23.88 67.3896 19.008C67.3896 14.136 71.0616 10.728 75.9576 10.728C80.8536 10.728 84.5016 14.136 84.5016 19.008C84.5016 23.88 80.8536 27.288 75.9576 27.288ZM75.9576 23.64C78.5976 23.64 80.3016 21.6 80.3016 19.008C80.3016 16.392 78.5976 14.376 75.9576 14.376C73.2936 14.376 71.5896 16.392 71.5896 19.008C71.5896 21.6 73.2936 23.64 75.9576 23.64ZM94.1646 27.288C89.0046 27.288 86.5806 24.456 86.5806 20.52V10.992H90.7806V20.376C90.7806 22.272 91.9086 23.64 94.1646 23.64C96.3726 23.64 97.5246 22.272 97.5246 20.376V10.992H101.701V20.496C101.701 24.48 99.2766 27.288 94.1646 27.288ZM112.285 27H108.157V14.592H103.669V10.992H116.749V14.592H112.285V27ZM126.297 27.288C121.137 27.288 118.713 24.456 118.713 20.52V10.992H122.913V20.376C122.913 22.272 124.041 23.64 126.297 23.64C128.505 23.64 129.657 22.272 129.657 20.376V10.992H133.833V20.496C133.833 24.48 131.409 27.288 126.297 27.288ZM146.073 27H136.713V10.992H145.785C148.953 10.992 150.465 13.056 150.465 15.072C150.465 17.064 149.241 18.408 147.729 18.744C149.433 19.008 150.777 20.64 150.777 22.656C150.777 24.984 149.217 27 146.073 27ZM144.849 17.136C145.689 17.136 146.265 16.584 146.265 15.792C146.265 15.024 145.689 14.472 144.849 14.472H140.841V17.136H144.849ZM144.993 23.52C145.977 23.52 146.577 22.944 146.577 22.08C146.577 21.288 146.001 20.64 144.993 20.64H140.841V23.52H144.993ZM164.762 27H153.026V10.992H164.762V14.592H157.154V17.088H164.594V20.688H157.154V23.4H164.762V27Z" fill="white"/>
</svg>
